<mxfile host="app.diagrams.net" agent="Mozilla/5.0 (Windows NT 10.0; Win64; x64) AppleWebKit/537.36 (KHTML, like Gecko) Chrome/131.0.0.0 Safari/537.36" version="24.9.2">
  <diagram name="Page-1" id="4POTmi9QzWOw7f_Mq91H">
    <mxGraphModel dx="1461" dy="652" grid="1" gridSize="10" guides="1" tooltips="1" connect="1" arrows="1" fold="1" page="1" pageScale="1" pageWidth="827" pageHeight="1169" math="0" shadow="0">
      <root>
        <mxCell id="0" />
        <mxCell id="1" parent="0" />
        <mxCell id="c-jw04XggQlRKkxN94m9-1" value="" style="ellipse;html=1;shape=startState;fillColor=#000000;strokeColor=#ff0000;" vertex="1" parent="1">
          <mxGeometry x="384" y="40" width="30" height="30" as="geometry" />
        </mxCell>
        <mxCell id="c-jw04XggQlRKkxN94m9-2" value="" style="edgeStyle=orthogonalEdgeStyle;html=1;verticalAlign=bottom;endArrow=open;endSize=8;strokeColor=#ff0000;rounded=0;" edge="1" source="c-jw04XggQlRKkxN94m9-1" parent="1">
          <mxGeometry relative="1" as="geometry">
            <mxPoint x="399" y="130" as="targetPoint" />
          </mxGeometry>
        </mxCell>
        <mxCell id="c-jw04XggQlRKkxN94m9-10" style="edgeStyle=orthogonalEdgeStyle;rounded=0;orthogonalLoop=1;jettySize=auto;html=1;exitX=0.5;exitY=1;exitDx=0;exitDy=0;" edge="1" parent="1" source="c-jw04XggQlRKkxN94m9-9">
          <mxGeometry relative="1" as="geometry">
            <mxPoint x="399" y="220" as="targetPoint" />
          </mxGeometry>
        </mxCell>
        <mxCell id="c-jw04XggQlRKkxN94m9-9" value="Load meshes in the scene" style="rounded=1;whiteSpace=wrap;html=1;absoluteArcSize=1;arcSize=14;strokeWidth=2;strokeColor=#CCCCCC;" vertex="1" parent="1">
          <mxGeometry x="320" y="130" width="160" height="40" as="geometry" />
        </mxCell>
        <mxCell id="c-jw04XggQlRKkxN94m9-33" style="edgeStyle=orthogonalEdgeStyle;rounded=0;orthogonalLoop=1;jettySize=auto;html=1;exitX=1;exitY=0.5;exitDx=0;exitDy=0;exitPerimeter=0;" edge="1" parent="1" source="c-jw04XggQlRKkxN94m9-11">
          <mxGeometry relative="1" as="geometry">
            <mxPoint x="540" y="270" as="targetPoint" />
          </mxGeometry>
        </mxCell>
        <mxCell id="c-jw04XggQlRKkxN94m9-11" value="Is frustum view culling active?" style="strokeWidth=2;html=1;shape=mxgraph.flowchart.decision;whiteSpace=wrap;strokeColor=#CCCCCC;" vertex="1" parent="1">
          <mxGeometry x="322.38" y="220" width="159" height="100" as="geometry" />
        </mxCell>
        <mxCell id="c-jw04XggQlRKkxN94m9-13" value="no&lt;div&gt;&lt;br&gt;&lt;/div&gt;" style="text;html=1;align=center;verticalAlign=middle;resizable=0;points=[];autosize=1;strokeColor=none;fillColor=none;" vertex="1" parent="1">
          <mxGeometry x="400" y="315" width="40" height="40" as="geometry" />
        </mxCell>
        <mxCell id="c-jw04XggQlRKkxN94m9-15" value="yes" style="text;html=1;align=center;verticalAlign=middle;resizable=0;points=[];autosize=1;strokeColor=none;fillColor=none;" vertex="1" parent="1">
          <mxGeometry x="470" y="238" width="40" height="30" as="geometry" />
        </mxCell>
        <mxCell id="c-jw04XggQlRKkxN94m9-18" style="edgeStyle=orthogonalEdgeStyle;rounded=0;orthogonalLoop=1;jettySize=auto;html=1;exitX=0.5;exitY=1;exitDx=0;exitDy=0;exitPerimeter=0;entryX=0.5;entryY=0;entryDx=0;entryDy=0;entryPerimeter=0;" edge="1" parent="1" source="c-jw04XggQlRKkxN94m9-11">
          <mxGeometry relative="1" as="geometry">
            <mxPoint x="401.885" y="360" as="targetPoint" />
          </mxGeometry>
        </mxCell>
        <mxCell id="c-jw04XggQlRKkxN94m9-35" style="edgeStyle=orthogonalEdgeStyle;rounded=0;orthogonalLoop=1;jettySize=auto;html=1;exitX=1;exitY=0.5;exitDx=0;exitDy=0;exitPerimeter=0;" edge="1" parent="1" source="c-jw04XggQlRKkxN94m9-34">
          <mxGeometry relative="1" as="geometry">
            <mxPoint x="740" y="270" as="targetPoint" />
          </mxGeometry>
        </mxCell>
        <mxCell id="c-jw04XggQlRKkxN94m9-38" style="edgeStyle=orthogonalEdgeStyle;rounded=0;orthogonalLoop=1;jettySize=auto;html=1;exitX=0.5;exitY=1;exitDx=0;exitDy=0;exitPerimeter=0;" edge="1" parent="1" source="c-jw04XggQlRKkxN94m9-34" target="c-jw04XggQlRKkxN94m9-40">
          <mxGeometry relative="1" as="geometry">
            <mxPoint x="620" y="360" as="targetPoint" />
          </mxGeometry>
        </mxCell>
        <mxCell id="c-jw04XggQlRKkxN94m9-34" value="Are the objects triangles outside of the frustum view cone?" style="strokeWidth=2;html=1;shape=mxgraph.flowchart.decision;whiteSpace=wrap;strokeColor=#CCCCCC;" vertex="1" parent="1">
          <mxGeometry x="540" y="220" width="159" height="100" as="geometry" />
        </mxCell>
        <mxCell id="c-jw04XggQlRKkxN94m9-36" value="yes" style="text;html=1;align=center;verticalAlign=middle;resizable=0;points=[];autosize=1;strokeColor=none;fillColor=none;" vertex="1" parent="1">
          <mxGeometry x="690" y="230" width="40" height="30" as="geometry" />
        </mxCell>
        <mxCell id="c-jw04XggQlRKkxN94m9-41" style="edgeStyle=orthogonalEdgeStyle;rounded=0;orthogonalLoop=1;jettySize=auto;html=1;exitX=0.5;exitY=1;exitDx=0;exitDy=0;" edge="1" parent="1" source="c-jw04XggQlRKkxN94m9-37">
          <mxGeometry relative="1" as="geometry">
            <mxPoint x="620" y="340" as="targetPoint" />
            <Array as="points">
              <mxPoint x="820" y="340" />
            </Array>
          </mxGeometry>
        </mxCell>
        <mxCell id="c-jw04XggQlRKkxN94m9-37" value="Cull The object" style="rounded=1;whiteSpace=wrap;html=1;absoluteArcSize=1;arcSize=14;strokeWidth=2;strokeColor=#CCCCCC;" vertex="1" parent="1">
          <mxGeometry x="740" y="250" width="160" height="40" as="geometry" />
        </mxCell>
        <mxCell id="c-jw04XggQlRKkxN94m9-39" value="no" style="text;html=1;align=center;verticalAlign=middle;resizable=0;points=[];autosize=1;strokeColor=none;fillColor=none;" vertex="1" parent="1">
          <mxGeometry x="625" y="320" width="40" height="30" as="geometry" />
        </mxCell>
        <mxCell id="c-jw04XggQlRKkxN94m9-42" style="edgeStyle=orthogonalEdgeStyle;rounded=0;orthogonalLoop=1;jettySize=auto;html=1;exitX=1;exitY=0.5;exitDx=0;exitDy=0;exitPerimeter=0;" edge="1" parent="1" source="c-jw04XggQlRKkxN94m9-40">
          <mxGeometry relative="1" as="geometry">
            <mxPoint x="540" y="410" as="targetPoint" />
          </mxGeometry>
        </mxCell>
        <mxCell id="c-jw04XggQlRKkxN94m9-44" style="edgeStyle=orthogonalEdgeStyle;rounded=0;orthogonalLoop=1;jettySize=auto;html=1;exitX=0.5;exitY=1;exitDx=0;exitDy=0;exitPerimeter=0;" edge="1" parent="1" source="c-jw04XggQlRKkxN94m9-40">
          <mxGeometry relative="1" as="geometry">
            <mxPoint x="402" y="500" as="targetPoint" />
          </mxGeometry>
        </mxCell>
        <mxCell id="c-jw04XggQlRKkxN94m9-40" value="is back face culling active?" style="strokeWidth=2;html=1;shape=mxgraph.flowchart.decision;whiteSpace=wrap;strokeColor=#CCCCCC;" vertex="1" parent="1">
          <mxGeometry x="322.38" y="360" width="159" height="100" as="geometry" />
        </mxCell>
        <mxCell id="c-jw04XggQlRKkxN94m9-43" value="yes" style="text;html=1;align=center;verticalAlign=middle;resizable=0;points=[];autosize=1;strokeColor=none;fillColor=none;" vertex="1" parent="1">
          <mxGeometry x="480" y="378" width="40" height="30" as="geometry" />
        </mxCell>
        <mxCell id="c-jw04XggQlRKkxN94m9-45" value="no" style="text;html=1;align=center;verticalAlign=middle;resizable=0;points=[];autosize=1;strokeColor=none;fillColor=none;" vertex="1" parent="1">
          <mxGeometry x="400" y="458" width="40" height="30" as="geometry" />
        </mxCell>
        <mxCell id="c-jw04XggQlRKkxN94m9-47" style="edgeStyle=orthogonalEdgeStyle;rounded=0;orthogonalLoop=1;jettySize=auto;html=1;exitX=1;exitY=0.5;exitDx=0;exitDy=0;exitPerimeter=0;" edge="1" parent="1" source="c-jw04XggQlRKkxN94m9-46">
          <mxGeometry relative="1" as="geometry">
            <mxPoint x="740" y="410" as="targetPoint" />
          </mxGeometry>
        </mxCell>
        <mxCell id="c-jw04XggQlRKkxN94m9-46" value="Is triangle backfacing?" style="strokeWidth=2;html=1;shape=mxgraph.flowchart.decision;whiteSpace=wrap;strokeColor=#CCCCCC;" vertex="1" parent="1">
          <mxGeometry x="540" y="360" width="159" height="100" as="geometry" />
        </mxCell>
        <mxCell id="c-jw04XggQlRKkxN94m9-48" value="yes" style="text;html=1;align=center;verticalAlign=middle;resizable=0;points=[];autosize=1;strokeColor=none;fillColor=none;" vertex="1" parent="1">
          <mxGeometry x="690" y="378" width="40" height="30" as="geometry" />
        </mxCell>
        <mxCell id="c-jw04XggQlRKkxN94m9-57" style="edgeStyle=orthogonalEdgeStyle;rounded=0;orthogonalLoop=1;jettySize=auto;html=1;exitX=0.5;exitY=1;exitDx=0;exitDy=0;" edge="1" parent="1" source="c-jw04XggQlRKkxN94m9-49">
          <mxGeometry relative="1" as="geometry">
            <mxPoint x="620" y="480" as="targetPoint" />
            <Array as="points">
              <mxPoint x="820" y="480" />
            </Array>
          </mxGeometry>
        </mxCell>
        <mxCell id="c-jw04XggQlRKkxN94m9-49" value="Cull The object" style="rounded=1;whiteSpace=wrap;html=1;absoluteArcSize=1;arcSize=14;strokeWidth=2;strokeColor=#CCCCCC;" vertex="1" parent="1">
          <mxGeometry x="740" y="390" width="160" height="40" as="geometry" />
        </mxCell>
        <mxCell id="c-jw04XggQlRKkxN94m9-51" style="edgeStyle=orthogonalEdgeStyle;rounded=0;orthogonalLoop=1;jettySize=auto;html=1;exitX=0.5;exitY=1;exitDx=0;exitDy=0;exitPerimeter=0;" edge="1" parent="1" source="c-jw04XggQlRKkxN94m9-50">
          <mxGeometry relative="1" as="geometry">
            <mxPoint x="402" y="650" as="targetPoint" />
          </mxGeometry>
        </mxCell>
        <mxCell id="c-jw04XggQlRKkxN94m9-50" value="Is occlusion culling active?" style="strokeWidth=2;html=1;shape=mxgraph.flowchart.decision;whiteSpace=wrap;strokeColor=#CCCCCC;" vertex="1" parent="1">
          <mxGeometry x="322.38" y="500" width="159" height="100" as="geometry" />
        </mxCell>
        <mxCell id="c-jw04XggQlRKkxN94m9-58" style="edgeStyle=orthogonalEdgeStyle;rounded=0;orthogonalLoop=1;jettySize=auto;html=1;exitX=1;exitY=0.5;exitDx=0;exitDy=0;exitPerimeter=0;" edge="1" parent="1" source="c-jw04XggQlRKkxN94m9-52">
          <mxGeometry relative="1" as="geometry">
            <mxPoint x="740" y="550" as="targetPoint" />
          </mxGeometry>
        </mxCell>
        <mxCell id="c-jw04XggQlRKkxN94m9-60" style="edgeStyle=orthogonalEdgeStyle;rounded=0;orthogonalLoop=1;jettySize=auto;html=1;exitX=0.5;exitY=1;exitDx=0;exitDy=0;exitPerimeter=0;entryX=0.5;entryY=0;entryDx=0;entryDy=0;" edge="1" parent="1" source="c-jw04XggQlRKkxN94m9-52" target="c-jw04XggQlRKkxN94m9-64">
          <mxGeometry relative="1" as="geometry">
            <mxPoint x="620" y="650" as="targetPoint" />
          </mxGeometry>
        </mxCell>
        <mxCell id="c-jw04XggQlRKkxN94m9-52" value="are the objects triangles obscured by another?" style="strokeWidth=2;html=1;shape=mxgraph.flowchart.decision;whiteSpace=wrap;strokeColor=#CCCCCC;" vertex="1" parent="1">
          <mxGeometry x="540" y="500" width="159" height="100" as="geometry" />
        </mxCell>
        <mxCell id="c-jw04XggQlRKkxN94m9-53" style="edgeStyle=orthogonalEdgeStyle;rounded=0;orthogonalLoop=1;jettySize=auto;html=1;exitX=1;exitY=0.5;exitDx=0;exitDy=0;exitPerimeter=0;entryX=0;entryY=0.5;entryDx=0;entryDy=0;entryPerimeter=0;" edge="1" parent="1" source="c-jw04XggQlRKkxN94m9-50" target="c-jw04XggQlRKkxN94m9-52">
          <mxGeometry relative="1" as="geometry" />
        </mxCell>
        <mxCell id="c-jw04XggQlRKkxN94m9-54" value="yes" style="text;html=1;align=center;verticalAlign=middle;resizable=0;points=[];autosize=1;strokeColor=none;fillColor=none;" vertex="1" parent="1">
          <mxGeometry x="480" y="518" width="40" height="30" as="geometry" />
        </mxCell>
        <mxCell id="c-jw04XggQlRKkxN94m9-55" value="no" style="text;html=1;align=center;verticalAlign=middle;resizable=0;points=[];autosize=1;strokeColor=none;fillColor=none;" vertex="1" parent="1">
          <mxGeometry x="405" y="600" width="40" height="30" as="geometry" />
        </mxCell>
        <mxCell id="c-jw04XggQlRKkxN94m9-56" style="edgeStyle=orthogonalEdgeStyle;rounded=0;orthogonalLoop=1;jettySize=auto;html=1;exitX=0.5;exitY=1;exitDx=0;exitDy=0;exitPerimeter=0;entryX=0.5;entryY=0;entryDx=0;entryDy=0;entryPerimeter=0;" edge="1" parent="1" source="c-jw04XggQlRKkxN94m9-46" target="c-jw04XggQlRKkxN94m9-50">
          <mxGeometry relative="1" as="geometry" />
        </mxCell>
        <mxCell id="c-jw04XggQlRKkxN94m9-59" value="yes" style="text;html=1;align=center;verticalAlign=middle;resizable=0;points=[];autosize=1;strokeColor=none;fillColor=none;" vertex="1" parent="1">
          <mxGeometry x="690" y="518" width="40" height="30" as="geometry" />
        </mxCell>
        <mxCell id="c-jw04XggQlRKkxN94m9-61" value="no" style="text;html=1;align=center;verticalAlign=middle;resizable=0;points=[];autosize=1;strokeColor=none;fillColor=none;" vertex="1" parent="1">
          <mxGeometry x="585" y="590" width="40" height="30" as="geometry" />
        </mxCell>
        <mxCell id="c-jw04XggQlRKkxN94m9-62" value="Cull The object" style="rounded=1;whiteSpace=wrap;html=1;absoluteArcSize=1;arcSize=14;strokeWidth=2;strokeColor=#CCCCCC;" vertex="1" parent="1">
          <mxGeometry x="740" y="530" width="160" height="40" as="geometry" />
        </mxCell>
        <mxCell id="c-jw04XggQlRKkxN94m9-65" style="edgeStyle=orthogonalEdgeStyle;rounded=0;orthogonalLoop=1;jettySize=auto;html=1;exitX=0.5;exitY=1;exitDx=0;exitDy=0;" edge="1" parent="1" source="c-jw04XggQlRKkxN94m9-64">
          <mxGeometry relative="1" as="geometry">
            <mxPoint x="402" y="740" as="targetPoint" />
          </mxGeometry>
        </mxCell>
        <mxCell id="c-jw04XggQlRKkxN94m9-64" value="Iterate through all rendered meshes" style="rounded=1;whiteSpace=wrap;html=1;absoluteArcSize=1;arcSize=14;strokeWidth=2;strokeColor=#CCCCCC;" vertex="1" parent="1">
          <mxGeometry x="322.38" y="650" width="160" height="40" as="geometry" />
        </mxCell>
        <mxCell id="c-jw04XggQlRKkxN94m9-69" style="edgeStyle=orthogonalEdgeStyle;rounded=0;orthogonalLoop=1;jettySize=auto;html=1;exitX=0.5;exitY=1;exitDx=0;exitDy=0;" edge="1" parent="1" source="c-jw04XggQlRKkxN94m9-66">
          <mxGeometry relative="1" as="geometry">
            <mxPoint x="402" y="830" as="targetPoint" />
          </mxGeometry>
        </mxCell>
        <mxCell id="c-jw04XggQlRKkxN94m9-66" value="Output num. rendered polygons" style="rounded=1;whiteSpace=wrap;html=1;absoluteArcSize=1;arcSize=14;strokeWidth=2;strokeColor=#CCCCCC;" vertex="1" parent="1">
          <mxGeometry x="322.38" y="740" width="160" height="40" as="geometry" />
        </mxCell>
        <mxCell id="c-jw04XggQlRKkxN94m9-68" style="edgeStyle=orthogonalEdgeStyle;rounded=0;orthogonalLoop=1;jettySize=auto;html=1;exitX=0.5;exitY=1;exitDx=0;exitDy=0;" edge="1" parent="1" source="c-jw04XggQlRKkxN94m9-62">
          <mxGeometry relative="1" as="geometry">
            <mxPoint x="610" y="625" as="targetPoint" />
            <Array as="points">
              <mxPoint x="820" y="620" />
              <mxPoint x="624" y="620" />
            </Array>
          </mxGeometry>
        </mxCell>
        <mxCell id="c-jw04XggQlRKkxN94m9-70" value="" style="ellipse;html=1;shape=endState;fillColor=#000000;strokeColor=#ff0000;" vertex="1" parent="1">
          <mxGeometry x="387" y="830" width="30" height="30" as="geometry" />
        </mxCell>
      </root>
    </mxGraphModel>
  </diagram>
</mxfile>
